<mxfile host="app.diagrams.net" modified="2022-02-08T07:06:24.165Z" agent="5.0 (X11)" etag="lTrNAUuytOcbAyGMLM1I" version="16.5.3" type="github" pages="3">
  <diagram id="oQ-CZP-Ym7iO8yY-1h8-" name="overview">
    <mxGraphModel dx="1590" dy="793" grid="1" gridSize="10" guides="1" tooltips="1" connect="1" arrows="1" fold="1" page="1" pageScale="1" pageWidth="850" pageHeight="1100" math="0" shadow="0">
      <root>
        <mxCell id="0" />
        <mxCell id="1" parent="0" />
        <mxCell id="yjLSQKTficvRHSg3C1Dp-1" value="Actor" style="shape=umlActor;verticalLabelPosition=bottom;verticalAlign=top;html=1;outlineConnect=0;" parent="1" vertex="1">
          <mxGeometry x="20" y="50" width="20" height="40" as="geometry" />
        </mxCell>
        <mxCell id="yjLSQKTficvRHSg3C1Dp-3" value="&#xa;Transaction Flow&#xa;" style="swimlane;startSize=20;" parent="1" vertex="1">
          <mxGeometry x="70" y="40" width="330" height="200" as="geometry">
            <mxRectangle x="70" y="40" width="130" height="23" as="alternateBounds" />
          </mxGeometry>
        </mxCell>
        <mxCell id="yjLSQKTficvRHSg3C1Dp-6" value="" style="group" parent="yjLSQKTficvRHSg3C1Dp-3" vertex="1" connectable="0">
          <mxGeometry x="10" y="30" width="140" height="110" as="geometry" />
        </mxCell>
        <mxCell id="yjLSQKTficvRHSg3C1Dp-9" style="edgeStyle=orthogonalEdgeStyle;rounded=0;orthogonalLoop=1;jettySize=auto;html=1;" parent="yjLSQKTficvRHSg3C1Dp-6" source="yjLSQKTficvRHSg3C1Dp-2" target="yjLSQKTficvRHSg3C1Dp-4" edge="1">
          <mxGeometry relative="1" as="geometry" />
        </mxCell>
        <mxCell id="yjLSQKTficvRHSg3C1Dp-2" value="Auth" style="rounded=0;whiteSpace=wrap;html=1;" parent="yjLSQKTficvRHSg3C1Dp-6" vertex="1">
          <mxGeometry width="140.00000000000003" height="30" as="geometry" />
        </mxCell>
        <mxCell id="yjLSQKTficvRHSg3C1Dp-10" style="edgeStyle=orthogonalEdgeStyle;rounded=0;orthogonalLoop=1;jettySize=auto;html=1;entryX=0.5;entryY=0;entryDx=0;entryDy=0;" parent="yjLSQKTficvRHSg3C1Dp-6" source="yjLSQKTficvRHSg3C1Dp-4" target="yjLSQKTficvRHSg3C1Dp-5" edge="1">
          <mxGeometry relative="1" as="geometry" />
        </mxCell>
        <mxCell id="yjLSQKTficvRHSg3C1Dp-4" value="Check Balance" style="rounded=0;whiteSpace=wrap;html=1;" parent="yjLSQKTficvRHSg3C1Dp-6" vertex="1">
          <mxGeometry y="55" width="140.00000000000003" height="30" as="geometry" />
        </mxCell>
        <mxCell id="yjLSQKTficvRHSg3C1Dp-5" value="Check Product Stock" style="rounded=0;whiteSpace=wrap;html=1;" parent="yjLSQKTficvRHSg3C1Dp-6" vertex="1">
          <mxGeometry y="113" width="140.00000000000003" height="30" as="geometry" />
        </mxCell>
        <mxCell id="yjLSQKTficvRHSg3C1Dp-13" style="edgeStyle=orthogonalEdgeStyle;rounded=0;orthogonalLoop=1;jettySize=auto;html=1;entryX=0.5;entryY=0;entryDx=0;entryDy=0;" parent="yjLSQKTficvRHSg3C1Dp-3" source="yjLSQKTficvRHSg3C1Dp-8" target="yjLSQKTficvRHSg3C1Dp-12" edge="1">
          <mxGeometry relative="1" as="geometry" />
        </mxCell>
        <mxCell id="yjLSQKTficvRHSg3C1Dp-8" value="Order" style="rounded=0;whiteSpace=wrap;html=1;" parent="yjLSQKTficvRHSg3C1Dp-3" vertex="1">
          <mxGeometry x="180" y="30" width="140.00000000000003" height="30" as="geometry" />
        </mxCell>
        <mxCell id="yjLSQKTficvRHSg3C1Dp-11" style="edgeStyle=orthogonalEdgeStyle;rounded=0;orthogonalLoop=1;jettySize=auto;html=1;entryX=0;entryY=0.5;entryDx=0;entryDy=0;" parent="yjLSQKTficvRHSg3C1Dp-3" source="yjLSQKTficvRHSg3C1Dp-5" target="yjLSQKTficvRHSg3C1Dp-8" edge="1">
          <mxGeometry relative="1" as="geometry">
            <Array as="points">
              <mxPoint x="160" y="158" />
              <mxPoint x="160" y="45" />
            </Array>
          </mxGeometry>
        </mxCell>
        <mxCell id="yjLSQKTficvRHSg3C1Dp-15" style="edgeStyle=orthogonalEdgeStyle;rounded=0;orthogonalLoop=1;jettySize=auto;html=1;exitX=0.5;exitY=1;exitDx=0;exitDy=0;entryX=0.5;entryY=0;entryDx=0;entryDy=0;" parent="yjLSQKTficvRHSg3C1Dp-3" source="yjLSQKTficvRHSg3C1Dp-12" target="yjLSQKTficvRHSg3C1Dp-14" edge="1">
          <mxGeometry relative="1" as="geometry" />
        </mxCell>
        <mxCell id="yjLSQKTficvRHSg3C1Dp-12" value="Payment" style="rounded=0;whiteSpace=wrap;html=1;" parent="yjLSQKTficvRHSg3C1Dp-3" vertex="1">
          <mxGeometry x="180" y="85" width="140.00000000000003" height="30" as="geometry" />
        </mxCell>
        <mxCell id="yjLSQKTficvRHSg3C1Dp-14" value="Finish" style="rounded=0;whiteSpace=wrap;html=1;" parent="yjLSQKTficvRHSg3C1Dp-3" vertex="1">
          <mxGeometry x="180" y="140" width="140.00000000000003" height="30" as="geometry" />
        </mxCell>
        <mxCell id="yjLSQKTficvRHSg3C1Dp-16" value="Auth Service" style="swimlane;fontStyle=0;childLayout=stackLayout;horizontal=1;startSize=26;fillColor=none;horizontalStack=0;resizeParent=1;resizeParentMax=0;resizeLast=0;collapsible=1;marginBottom=0;" parent="1" vertex="1">
          <mxGeometry x="70" y="270" width="140" height="156" as="geometry" />
        </mxCell>
        <mxCell id="yjLSQKTficvRHSg3C1Dp-17" value="Get data customer" style="text;strokeColor=none;fillColor=none;align=left;verticalAlign=top;spacingLeft=4;spacingRight=4;overflow=hidden;rotatable=0;points=[[0,0.5],[1,0.5]];portConstraint=eastwest;" parent="yjLSQKTficvRHSg3C1Dp-16" vertex="1">
          <mxGeometry y="26" width="140" height="26" as="geometry" />
        </mxCell>
        <mxCell id="yjLSQKTficvRHSg3C1Dp-18" value="Generate signature" style="text;strokeColor=none;fillColor=none;align=left;verticalAlign=top;spacingLeft=4;spacingRight=4;overflow=hidden;rotatable=0;points=[[0,0.5],[1,0.5]];portConstraint=eastwest;" parent="yjLSQKTficvRHSg3C1Dp-16" vertex="1">
          <mxGeometry y="52" width="140" height="26" as="geometry" />
        </mxCell>
        <mxCell id="yjLSQKTficvRHSg3C1Dp-19" value="Compare customer&#xa;signature with generate&#xa;signature&#xa;" style="text;strokeColor=none;fillColor=none;align=left;verticalAlign=top;spacingLeft=4;spacingRight=4;overflow=hidden;rotatable=0;points=[[0,0.5],[1,0.5]];portConstraint=eastwest;" parent="yjLSQKTficvRHSg3C1Dp-16" vertex="1">
          <mxGeometry y="78" width="140" height="52" as="geometry" />
        </mxCell>
        <mxCell id="yjLSQKTficvRHSg3C1Dp-20" value="response true with jwt" style="text;strokeColor=none;fillColor=none;align=left;verticalAlign=top;spacingLeft=4;spacingRight=4;overflow=hidden;rotatable=0;points=[[0,0.5],[1,0.5]];portConstraint=eastwest;" parent="yjLSQKTficvRHSg3C1Dp-16" vertex="1">
          <mxGeometry y="130" width="140" height="26" as="geometry" />
        </mxCell>
      </root>
    </mxGraphModel>
  </diagram>
  <diagram id="mIhNrBezTr8Bov2MFFMR" name="architecture">
    <mxGraphModel dx="1590" dy="793" grid="1" gridSize="10" guides="1" tooltips="1" connect="1" arrows="1" fold="1" page="1" pageScale="1" pageWidth="850" pageHeight="1100" math="0" shadow="0">
      <root>
        <mxCell id="6Mg6lQkFVJB2yA4eQzIb-0" />
        <mxCell id="6Mg6lQkFVJB2yA4eQzIb-1" parent="6Mg6lQkFVJB2yA4eQzIb-0" />
        <mxCell id="EfeLdfodrpcB_5IXN53o-14" value="Presintance Micro Service Dashboard" style="shape=umlFrame;whiteSpace=wrap;html=1;fillColor=#FFFF99;width=310;height=20;strokeColor=#CC0000;" parent="6Mg6lQkFVJB2yA4eQzIb-1" vertex="1">
          <mxGeometry x="840" y="590" width="780" height="292.5" as="geometry" />
        </mxCell>
        <mxCell id="6Mg6lQkFVJB2yA4eQzIb-514" value="Presintance Micro Service" style="shape=umlFrame;whiteSpace=wrap;html=1;fillColor=#FFFF99;width=310;height=20;strokeColor=#CC0000;" parent="6Mg6lQkFVJB2yA4eQzIb-1" vertex="1">
          <mxGeometry x="20" y="517.5" width="780" height="365" as="geometry" />
        </mxCell>
        <mxCell id="6Mg6lQkFVJB2yA4eQzIb-507" value="Stateless Micro Service" style="shape=umlFrame;whiteSpace=wrap;html=1;fillColor=#FFFF99;width=310;height=20;" parent="6Mg6lQkFVJB2yA4eQzIb-1" vertex="1">
          <mxGeometry x="20" y="1070" width="1460" height="260" as="geometry" />
        </mxCell>
        <mxCell id="6Mg6lQkFVJB2yA4eQzIb-506" value="Agregation Micro Service" style="shape=umlFrame;whiteSpace=wrap;html=1;fillColor=#FFFF99;width=310;height=20;strokeColor=#007FFF;dashed=1;" parent="6Mg6lQkFVJB2yA4eQzIb-1" vertex="1">
          <mxGeometry x="20" y="930" width="1460" height="110" as="geometry" />
        </mxCell>
        <mxCell id="6Mg6lQkFVJB2yA4eQzIb-11" style="edgeStyle=orthogonalEdgeStyle;rounded=0;orthogonalLoop=1;jettySize=auto;html=1;" parent="6Mg6lQkFVJB2yA4eQzIb-1" source="6Mg6lQkFVJB2yA4eQzIb-3" target="6Mg6lQkFVJB2yA4eQzIb-7" edge="1">
          <mxGeometry relative="1" as="geometry" />
        </mxCell>
        <mxCell id="6Mg6lQkFVJB2yA4eQzIb-3" value="&lt;b&gt;OtomAx request h2h&lt;/b&gt;" style="shape=umlActor;verticalLabelPosition=bottom;verticalAlign=top;html=1;outlineConnect=0;" parent="6Mg6lQkFVJB2yA4eQzIb-1" vertex="1">
          <mxGeometry x="582" y="70" width="15" height="30" as="geometry" />
        </mxCell>
        <mxCell id="6Mg6lQkFVJB2yA4eQzIb-13" value="http" style="edgeStyle=orthogonalEdgeStyle;rounded=0;orthogonalLoop=1;jettySize=auto;html=1;entryX=0.5;entryY=0;entryDx=0;entryDy=0;entryPerimeter=0;" parent="6Mg6lQkFVJB2yA4eQzIb-1" source="6Mg6lQkFVJB2yA4eQzIb-7" target="6Mg6lQkFVJB2yA4eQzIb-18" edge="1">
          <mxGeometry relative="1" as="geometry">
            <mxPoint x="485.73913043478274" y="252.9999999999999" as="targetPoint" />
          </mxGeometry>
        </mxCell>
        <mxCell id="6Mg6lQkFVJB2yA4eQzIb-7" value="internet" style="ellipse;shape=cloud;whiteSpace=wrap;html=1;fillColor=#FFD966;strokeColor=#FFFF66;strokeWidth=2;shadow=1;sketch=0;" parent="6Mg6lQkFVJB2yA4eQzIb-1" vertex="1">
          <mxGeometry x="435.66" y="130" width="87" height="70" as="geometry" />
        </mxCell>
        <mxCell id="6Mg6lQkFVJB2yA4eQzIb-15" style="rounded=0;orthogonalLoop=1;jettySize=auto;html=1;" parent="6Mg6lQkFVJB2yA4eQzIb-1" source="6Mg6lQkFVJB2yA4eQzIb-14" target="6Mg6lQkFVJB2yA4eQzIb-7" edge="1">
          <mxGeometry relative="1" as="geometry" />
        </mxCell>
        <mxCell id="6Mg6lQkFVJB2yA4eQzIb-14" value="&lt;b&gt;Standard request h2h&lt;/b&gt;" style="shape=umlActor;verticalLabelPosition=bottom;verticalAlign=top;html=1;outlineConnect=0;" parent="6Mg6lQkFVJB2yA4eQzIb-1" vertex="1">
          <mxGeometry x="472" y="20" width="15" height="30" as="geometry" />
        </mxCell>
        <mxCell id="6Mg6lQkFVJB2yA4eQzIb-17" style="edgeStyle=orthogonalEdgeStyle;rounded=0;orthogonalLoop=1;jettySize=auto;html=1;" parent="6Mg6lQkFVJB2yA4eQzIb-1" source="6Mg6lQkFVJB2yA4eQzIb-16" target="6Mg6lQkFVJB2yA4eQzIb-7" edge="1">
          <mxGeometry relative="1" as="geometry" />
        </mxCell>
        <mxCell id="6Mg6lQkFVJB2yA4eQzIb-16" value="&lt;b&gt;FM request h2h&lt;/b&gt;" style="shape=umlActor;verticalLabelPosition=bottom;verticalAlign=top;html=1;outlineConnect=0;" parent="6Mg6lQkFVJB2yA4eQzIb-1" vertex="1">
          <mxGeometry x="362" y="70" width="15" height="30" as="geometry" />
        </mxCell>
        <mxCell id="6Mg6lQkFVJB2yA4eQzIb-24" style="edgeStyle=orthogonalEdgeStyle;curved=1;rounded=0;orthogonalLoop=1;jettySize=auto;html=1;entryX=0;entryY=0;entryDx=48.33;entryDy=0;entryPerimeter=0;" parent="6Mg6lQkFVJB2yA4eQzIb-1" source="6Mg6lQkFVJB2yA4eQzIb-18" target="6Mg6lQkFVJB2yA4eQzIb-19" edge="1">
          <mxGeometry relative="1" as="geometry" />
        </mxCell>
        <mxCell id="6Mg6lQkFVJB2yA4eQzIb-28" value="RPI http call" style="edgeLabel;html=1;align=center;verticalAlign=middle;resizable=0;points=[];" parent="6Mg6lQkFVJB2yA4eQzIb-24" vertex="1" connectable="0">
          <mxGeometry x="-0.0633" y="12" relative="1" as="geometry">
            <mxPoint x="-1" as="offset" />
          </mxGeometry>
        </mxCell>
        <mxCell id="6Mg6lQkFVJB2yA4eQzIb-25" value="&lt;div&gt;RPI http call&lt;/div&gt;" style="edgeStyle=orthogonalEdgeStyle;rounded=0;orthogonalLoop=1;jettySize=auto;html=1;entryX=0.5;entryY=-0.06;entryDx=0;entryDy=0;entryPerimeter=0;" parent="6Mg6lQkFVJB2yA4eQzIb-1" source="6Mg6lQkFVJB2yA4eQzIb-18" target="6Mg6lQkFVJB2yA4eQzIb-20" edge="1">
          <mxGeometry relative="1" as="geometry" />
        </mxCell>
        <mxCell id="6Mg6lQkFVJB2yA4eQzIb-26" style="edgeStyle=orthogonalEdgeStyle;curved=1;rounded=0;orthogonalLoop=1;jettySize=auto;html=1;entryX=0.504;entryY=-0.008;entryDx=0;entryDy=0;entryPerimeter=0;" parent="6Mg6lQkFVJB2yA4eQzIb-1" source="6Mg6lQkFVJB2yA4eQzIb-18" target="6Mg6lQkFVJB2yA4eQzIb-21" edge="1">
          <mxGeometry relative="1" as="geometry" />
        </mxCell>
        <mxCell id="6Mg6lQkFVJB2yA4eQzIb-27" value="RPI http call" style="edgeLabel;html=1;align=center;verticalAlign=middle;resizable=0;points=[];" parent="6Mg6lQkFVJB2yA4eQzIb-26" vertex="1" connectable="0">
          <mxGeometry x="-0.2447" y="-7" relative="1" as="geometry">
            <mxPoint x="-1" as="offset" />
          </mxGeometry>
        </mxCell>
        <mxCell id="6Mg6lQkFVJB2yA4eQzIb-18" value="API Gateway (NGINX)" style="shape=cube;whiteSpace=wrap;html=1;boundedLbl=1;backgroundOutline=1;darkOpacity=0.05;darkOpacity2=0.1;fillColor=#66FF66;" parent="6Mg6lQkFVJB2yA4eQzIb-1" vertex="1">
          <mxGeometry x="412" y="263" width="145.83" height="50" as="geometry" />
        </mxCell>
        <mxCell id="6Mg6lQkFVJB2yA4eQzIb-458" value="RPI http call" style="edgeStyle=orthogonalEdgeStyle;rounded=0;orthogonalLoop=1;jettySize=auto;html=1;entryX=0;entryY=0;entryDx=0;entryDy=10;entryPerimeter=0;fillColor=#FF9999;" parent="6Mg6lQkFVJB2yA4eQzIb-1" source="6Mg6lQkFVJB2yA4eQzIb-19" target="6Mg6lQkFVJB2yA4eQzIb-453" edge="1">
          <mxGeometry relative="1" as="geometry" />
        </mxCell>
        <mxCell id="6Mg6lQkFVJB2yA4eQzIb-19" value="FM API" style="shape=cube;whiteSpace=wrap;html=1;boundedLbl=1;backgroundOutline=1;darkOpacity=0.05;darkOpacity2=0.1;fillColor=#FFFF99;" parent="6Mg6lQkFVJB2yA4eQzIb-1" vertex="1">
          <mxGeometry x="240" y="380" width="108.66" height="40" as="geometry" />
        </mxCell>
        <mxCell id="6Mg6lQkFVJB2yA4eQzIb-460" value="RPI http call" style="edgeStyle=orthogonalEdgeStyle;rounded=0;orthogonalLoop=1;jettySize=auto;html=1;entryX=0.508;entryY=-0.045;entryDx=0;entryDy=0;entryPerimeter=0;" parent="6Mg6lQkFVJB2yA4eQzIb-1" source="6Mg6lQkFVJB2yA4eQzIb-20" target="6Mg6lQkFVJB2yA4eQzIb-453" edge="1">
          <mxGeometry relative="1" as="geometry" />
        </mxCell>
        <mxCell id="6Mg6lQkFVJB2yA4eQzIb-20" value="Standard API" style="shape=cube;whiteSpace=wrap;html=1;boundedLbl=1;backgroundOutline=1;darkOpacity=0.05;darkOpacity2=0.1;fillColor=#FFFF99;" parent="6Mg6lQkFVJB2yA4eQzIb-1" vertex="1">
          <mxGeometry x="443.34" y="390" width="116.66" height="40" as="geometry" />
        </mxCell>
        <mxCell id="6Mg6lQkFVJB2yA4eQzIb-455" value="RPI http call" style="edgeStyle=orthogonalEdgeStyle;rounded=0;orthogonalLoop=1;jettySize=auto;html=1;entryX=0;entryY=0;entryDx=170;entryDy=30;entryPerimeter=0;" parent="6Mg6lQkFVJB2yA4eQzIb-1" source="6Mg6lQkFVJB2yA4eQzIb-21" target="6Mg6lQkFVJB2yA4eQzIb-453" edge="1">
          <mxGeometry relative="1" as="geometry" />
        </mxCell>
        <mxCell id="6Mg6lQkFVJB2yA4eQzIb-21" value="OtoMax API" style="shape=cube;whiteSpace=wrap;html=1;boundedLbl=1;backgroundOutline=1;darkOpacity=0.05;darkOpacity2=0.1;fillColor=#FFFF99;" parent="6Mg6lQkFVJB2yA4eQzIb-1" vertex="1">
          <mxGeometry x="642" y="371" width="116.67" height="40" as="geometry" />
        </mxCell>
        <mxCell id="6Mg6lQkFVJB2yA4eQzIb-522" style="edgeStyle=orthogonalEdgeStyle;rounded=0;orthogonalLoop=1;jettySize=auto;html=1;fillColor=#FF9999;entryX=0.5;entryY=0;entryDx=0;entryDy=0;entryPerimeter=0;curved=1;strokeColor=#FF0000;" parent="6Mg6lQkFVJB2yA4eQzIb-1" source="6Mg6lQkFVJB2yA4eQzIb-453" target="6Mg6lQkFVJB2yA4eQzIb-518" edge="1">
          <mxGeometry relative="1" as="geometry" />
        </mxCell>
        <mxCell id="6Mg6lQkFVJB2yA4eQzIb-523" style="edgeStyle=orthogonalEdgeStyle;curved=1;rounded=0;orthogonalLoop=1;jettySize=auto;html=1;strokeColor=#000000;fillColor=#FF9999;" parent="6Mg6lQkFVJB2yA4eQzIb-1" source="6Mg6lQkFVJB2yA4eQzIb-453" target="6Mg6lQkFVJB2yA4eQzIb-461" edge="1">
          <mxGeometry relative="1" as="geometry" />
        </mxCell>
        <mxCell id="6Mg6lQkFVJB2yA4eQzIb-524" style="edgeStyle=orthogonalEdgeStyle;curved=1;rounded=0;orthogonalLoop=1;jettySize=auto;html=1;entryX=0;entryY=0;entryDx=48.33;entryDy=0;entryPerimeter=0;strokeColor=#000000;fillColor=#FF9999;" parent="6Mg6lQkFVJB2yA4eQzIb-1" source="6Mg6lQkFVJB2yA4eQzIb-453" target="6Mg6lQkFVJB2yA4eQzIb-519" edge="1">
          <mxGeometry relative="1" as="geometry" />
        </mxCell>
        <mxCell id="6Mg6lQkFVJB2yA4eQzIb-543" style="rounded=0;orthogonalLoop=1;jettySize=auto;html=1;entryX=0;entryY=0;entryDx=48.33;entryDy=0;entryPerimeter=0;strokeColor=#FF0000;fillColor=#FF9999;strokeWidth=2;edgeStyle=elbowEdgeStyle;" parent="6Mg6lQkFVJB2yA4eQzIb-1" source="6Mg6lQkFVJB2yA4eQzIb-453" target="6Mg6lQkFVJB2yA4eQzIb-463" edge="1">
          <mxGeometry relative="1" as="geometry" />
        </mxCell>
        <mxCell id="6Mg6lQkFVJB2yA4eQzIb-453" value="Transaction Service" style="shape=cube;whiteSpace=wrap;html=1;boundedLbl=1;backgroundOutline=1;darkOpacity=0.05;darkOpacity2=0.1;fillColor=#FFFF99;" parent="6Mg6lQkFVJB2yA4eQzIb-1" vertex="1">
          <mxGeometry x="504.5" y="570" width="170" height="40" as="geometry" />
        </mxCell>
        <mxCell id="6Mg6lQkFVJB2yA4eQzIb-517" style="rounded=0;orthogonalLoop=1;jettySize=auto;html=1;fillColor=#FF9999;strokeColor=#FF0000;" parent="6Mg6lQkFVJB2yA4eQzIb-1" source="6Mg6lQkFVJB2yA4eQzIb-461" target="6Mg6lQkFVJB2yA4eQzIb-515" edge="1">
          <mxGeometry relative="1" as="geometry" />
        </mxCell>
        <mxCell id="6Mg6lQkFVJB2yA4eQzIb-461" value="&lt;div&gt;Product Service&lt;/div&gt;" style="shape=cube;whiteSpace=wrap;html=1;boundedLbl=1;backgroundOutline=1;darkOpacity=0.05;darkOpacity2=0.1;fillColor=#FFFF99;" parent="6Mg6lQkFVJB2yA4eQzIb-1" vertex="1">
          <mxGeometry x="36" y="650" width="116.66" height="40" as="geometry" />
        </mxCell>
        <mxCell id="6Mg6lQkFVJB2yA4eQzIb-483" style="edgeStyle=orthogonalEdgeStyle;curved=1;rounded=0;orthogonalLoop=1;jettySize=auto;html=1;" parent="6Mg6lQkFVJB2yA4eQzIb-1" source="6Mg6lQkFVJB2yA4eQzIb-463" target="6Mg6lQkFVJB2yA4eQzIb-470" edge="1">
          <mxGeometry relative="1" as="geometry" />
        </mxCell>
        <mxCell id="6Mg6lQkFVJB2yA4eQzIb-494" value="gRPC" style="edgeLabel;html=1;align=center;verticalAlign=middle;resizable=0;points=[];" parent="6Mg6lQkFVJB2yA4eQzIb-483" vertex="1" connectable="0">
          <mxGeometry x="0.1231" y="32" relative="1" as="geometry">
            <mxPoint as="offset" />
          </mxGeometry>
        </mxCell>
        <mxCell id="6Mg6lQkFVJB2yA4eQzIb-484" style="edgeStyle=orthogonalEdgeStyle;curved=1;rounded=0;orthogonalLoop=1;jettySize=auto;html=1;" parent="6Mg6lQkFVJB2yA4eQzIb-1" source="6Mg6lQkFVJB2yA4eQzIb-463" target="6Mg6lQkFVJB2yA4eQzIb-469" edge="1">
          <mxGeometry relative="1" as="geometry" />
        </mxCell>
        <mxCell id="6Mg6lQkFVJB2yA4eQzIb-509" value="gRPC" style="edgeLabel;html=1;align=center;verticalAlign=middle;resizable=0;points=[];" parent="6Mg6lQkFVJB2yA4eQzIb-484" vertex="1" connectable="0">
          <mxGeometry x="-0.2121" y="22" relative="1" as="geometry">
            <mxPoint x="-14" y="3" as="offset" />
          </mxGeometry>
        </mxCell>
        <mxCell id="6Mg6lQkFVJB2yA4eQzIb-485" value="" style="edgeStyle=orthogonalEdgeStyle;curved=1;rounded=0;orthogonalLoop=1;jettySize=auto;html=1;entryX=0;entryY=0;entryDx=48.33;entryDy=0;entryPerimeter=0;" parent="6Mg6lQkFVJB2yA4eQzIb-1" source="6Mg6lQkFVJB2yA4eQzIb-463" target="6Mg6lQkFVJB2yA4eQzIb-467" edge="1">
          <mxGeometry relative="1" as="geometry" />
        </mxCell>
        <mxCell id="EfeLdfodrpcB_5IXN53o-6" value="gRPC" style="edgeLabel;html=1;align=center;verticalAlign=middle;resizable=0;points=[];" parent="6Mg6lQkFVJB2yA4eQzIb-485" vertex="1" connectable="0">
          <mxGeometry x="0.0588" y="-38" relative="1" as="geometry">
            <mxPoint as="offset" />
          </mxGeometry>
        </mxCell>
        <mxCell id="6Mg6lQkFVJB2yA4eQzIb-486" style="edgeStyle=orthogonalEdgeStyle;curved=1;rounded=0;orthogonalLoop=1;jettySize=auto;html=1;" parent="6Mg6lQkFVJB2yA4eQzIb-1" source="6Mg6lQkFVJB2yA4eQzIb-463" target="6Mg6lQkFVJB2yA4eQzIb-468" edge="1">
          <mxGeometry relative="1" as="geometry" />
        </mxCell>
        <mxCell id="6Mg6lQkFVJB2yA4eQzIb-491" value="gRPC" style="edgeLabel;html=1;align=center;verticalAlign=middle;resizable=0;points=[];" parent="6Mg6lQkFVJB2yA4eQzIb-486" vertex="1" connectable="0">
          <mxGeometry x="0.3871" y="-12" relative="1" as="geometry">
            <mxPoint as="offset" />
          </mxGeometry>
        </mxCell>
        <mxCell id="6Mg6lQkFVJB2yA4eQzIb-487" style="edgeStyle=elbowEdgeStyle;rounded=0;orthogonalLoop=1;jettySize=auto;html=1;" parent="6Mg6lQkFVJB2yA4eQzIb-1" source="6Mg6lQkFVJB2yA4eQzIb-463" target="6Mg6lQkFVJB2yA4eQzIb-471" edge="1">
          <mxGeometry relative="1" as="geometry" />
        </mxCell>
        <mxCell id="6Mg6lQkFVJB2yA4eQzIb-511" value="gRPC" style="edgeLabel;html=1;align=center;verticalAlign=middle;resizable=0;points=[];" parent="6Mg6lQkFVJB2yA4eQzIb-487" vertex="1" connectable="0">
          <mxGeometry x="0.5186" y="-22" relative="1" as="geometry">
            <mxPoint as="offset" />
          </mxGeometry>
        </mxCell>
        <mxCell id="6Mg6lQkFVJB2yA4eQzIb-499" style="edgeStyle=orthogonalEdgeStyle;curved=1;rounded=0;orthogonalLoop=1;jettySize=auto;html=1;" parent="6Mg6lQkFVJB2yA4eQzIb-1" source="6Mg6lQkFVJB2yA4eQzIb-463" target="6Mg6lQkFVJB2yA4eQzIb-498" edge="1">
          <mxGeometry relative="1" as="geometry" />
        </mxCell>
        <mxCell id="6Mg6lQkFVJB2yA4eQzIb-512" value="gRPC" style="edgeLabel;html=1;align=center;verticalAlign=middle;resizable=0;points=[];" parent="6Mg6lQkFVJB2yA4eQzIb-499" vertex="1" connectable="0">
          <mxGeometry x="0.2532" y="-45" relative="1" as="geometry">
            <mxPoint as="offset" />
          </mxGeometry>
        </mxCell>
        <mxCell id="EfeLdfodrpcB_5IXN53o-7" style="edgeStyle=orthogonalEdgeStyle;curved=1;rounded=0;orthogonalLoop=1;jettySize=auto;html=1;" parent="6Mg6lQkFVJB2yA4eQzIb-1" source="6Mg6lQkFVJB2yA4eQzIb-463" target="EfeLdfodrpcB_5IXN53o-1" edge="1">
          <mxGeometry relative="1" as="geometry" />
        </mxCell>
        <mxCell id="EfeLdfodrpcB_5IXN53o-8" value="gRPC" style="edgeLabel;html=1;align=center;verticalAlign=middle;resizable=0;points=[];" parent="EfeLdfodrpcB_5IXN53o-7" vertex="1" connectable="0">
          <mxGeometry x="0.1693" y="-35" relative="1" as="geometry">
            <mxPoint as="offset" />
          </mxGeometry>
        </mxCell>
        <mxCell id="6Mg6lQkFVJB2yA4eQzIb-463" value="&lt;div&gt;Order Service&lt;/div&gt;" style="shape=cube;whiteSpace=wrap;html=1;boundedLbl=1;backgroundOutline=1;darkOpacity=0.05;darkOpacity2=0.1;fillColor=#FFFF99;" parent="6Mg6lQkFVJB2yA4eQzIb-1" vertex="1">
          <mxGeometry x="579.9999999999999" y="965" width="116.66" height="40" as="geometry" />
        </mxCell>
        <mxCell id="EfeLdfodrpcB_5IXN53o-12" style="edgeStyle=orthogonalEdgeStyle;curved=1;rounded=0;orthogonalLoop=1;jettySize=auto;html=1;" parent="6Mg6lQkFVJB2yA4eQzIb-1" source="6Mg6lQkFVJB2yA4eQzIb-467" target="EfeLdfodrpcB_5IXN53o-3" edge="1">
          <mxGeometry relative="1" as="geometry">
            <Array as="points">
              <mxPoint x="990" y="1269" />
            </Array>
          </mxGeometry>
        </mxCell>
        <mxCell id="6Mg6lQkFVJB2yA4eQzIb-467" value="&lt;div&gt;NGRS VAS Service&lt;/div&gt;" style="shape=cube;whiteSpace=wrap;html=1;boundedLbl=1;backgroundOutline=1;darkOpacity=0.05;darkOpacity2=0.1;fillColor=#FFFF99;" parent="6Mg6lQkFVJB2yA4eQzIb-1" vertex="1">
          <mxGeometry x="935" y="1118" width="155" height="40" as="geometry" />
        </mxCell>
        <mxCell id="6Mg6lQkFVJB2yA4eQzIb-480" value="Http" style="edgeStyle=orthogonalEdgeStyle;curved=1;rounded=0;orthogonalLoop=1;jettySize=auto;html=1;entryX=0.4;entryY=0.1;entryDx=0;entryDy=0;entryPerimeter=0;" parent="6Mg6lQkFVJB2yA4eQzIb-1" source="6Mg6lQkFVJB2yA4eQzIb-468" target="6Mg6lQkFVJB2yA4eQzIb-474" edge="1">
          <mxGeometry relative="1" as="geometry" />
        </mxCell>
        <mxCell id="6Mg6lQkFVJB2yA4eQzIb-468" value="&lt;div&gt;Sepulsa Service&lt;/div&gt;" style="shape=cube;whiteSpace=wrap;html=1;boundedLbl=1;backgroundOutline=1;darkOpacity=0.05;darkOpacity2=0.1;fillColor=#FFFF99;" parent="6Mg6lQkFVJB2yA4eQzIb-1" vertex="1">
          <mxGeometry x="380.34000000000003" y="1118" width="116.66" height="40" as="geometry" />
        </mxCell>
        <mxCell id="6Mg6lQkFVJB2yA4eQzIb-478" value="Http" style="edgeStyle=orthogonalEdgeStyle;curved=1;rounded=0;orthogonalLoop=1;jettySize=auto;html=1;entryX=0.4;entryY=0.1;entryDx=0;entryDy=0;entryPerimeter=0;" parent="6Mg6lQkFVJB2yA4eQzIb-1" source="6Mg6lQkFVJB2yA4eQzIb-469" target="6Mg6lQkFVJB2yA4eQzIb-476" edge="1">
          <mxGeometry relative="1" as="geometry" />
        </mxCell>
        <mxCell id="6Mg6lQkFVJB2yA4eQzIb-469" value="&lt;div&gt;UV Service&lt;/div&gt;" style="shape=cube;whiteSpace=wrap;html=1;boundedLbl=1;backgroundOutline=1;darkOpacity=0.05;darkOpacity2=0.1;fillColor=#FFFF99;" parent="6Mg6lQkFVJB2yA4eQzIb-1" vertex="1">
          <mxGeometry x="227.91999999999996" y="1118" width="116.66" height="40" as="geometry" />
        </mxCell>
        <mxCell id="6Mg6lQkFVJB2yA4eQzIb-477" value="Htpp" style="edgeStyle=orthogonalEdgeStyle;curved=1;rounded=0;orthogonalLoop=1;jettySize=auto;html=1;" parent="6Mg6lQkFVJB2yA4eQzIb-1" source="6Mg6lQkFVJB2yA4eQzIb-470" target="6Mg6lQkFVJB2yA4eQzIb-472" edge="1">
          <mxGeometry relative="1" as="geometry" />
        </mxCell>
        <mxCell id="6Mg6lQkFVJB2yA4eQzIb-470" value="&lt;div&gt;UT Service&lt;/div&gt;" style="shape=cube;whiteSpace=wrap;html=1;boundedLbl=1;backgroundOutline=1;darkOpacity=0.05;darkOpacity2=0.1;fillColor=#FFFF99;" parent="6Mg6lQkFVJB2yA4eQzIb-1" vertex="1">
          <mxGeometry x="49.99999999999994" y="1118" width="116.66" height="40" as="geometry" />
        </mxCell>
        <mxCell id="6Mg6lQkFVJB2yA4eQzIb-502" value="Http" style="edgeStyle=orthogonalEdgeStyle;curved=1;rounded=0;orthogonalLoop=1;jettySize=auto;html=1;entryX=0.321;entryY=0.144;entryDx=0;entryDy=0;entryPerimeter=0;" parent="6Mg6lQkFVJB2yA4eQzIb-1" source="6Mg6lQkFVJB2yA4eQzIb-471" target="6Mg6lQkFVJB2yA4eQzIb-473" edge="1">
          <mxGeometry relative="1" as="geometry" />
        </mxCell>
        <mxCell id="6Mg6lQkFVJB2yA4eQzIb-471" value="&lt;div&gt;Alphaone Service&lt;/div&gt;" style="shape=cube;whiteSpace=wrap;html=1;boundedLbl=1;backgroundOutline=1;darkOpacity=0.05;darkOpacity2=0.1;fillColor=#FFFF99;" parent="6Mg6lQkFVJB2yA4eQzIb-1" vertex="1">
          <mxGeometry x="538" y="1140" width="130" height="40" as="geometry" />
        </mxCell>
        <mxCell id="6Mg6lQkFVJB2yA4eQzIb-472" value="UT H2H" style="ellipse;shape=cloud;whiteSpace=wrap;html=1;fillColor=#FFFF99;" parent="6Mg6lQkFVJB2yA4eQzIb-1" vertex="1">
          <mxGeometry x="30" y="1219" width="120" height="80" as="geometry" />
        </mxCell>
        <mxCell id="6Mg6lQkFVJB2yA4eQzIb-473" value="Alphaone H2h" style="ellipse;shape=cloud;whiteSpace=wrap;html=1;fillColor=#FFFF99;" parent="6Mg6lQkFVJB2yA4eQzIb-1" vertex="1">
          <mxGeometry x="606.6600000000001" y="1219" width="120" height="80" as="geometry" />
        </mxCell>
        <mxCell id="6Mg6lQkFVJB2yA4eQzIb-474" value="SEPULSA H2H" style="ellipse;shape=cloud;whiteSpace=wrap;html=1;fillColor=#FFFF99;" parent="6Mg6lQkFVJB2yA4eQzIb-1" vertex="1">
          <mxGeometry x="421.2500000000001" y="1219" width="120" height="80" as="geometry" />
        </mxCell>
        <mxCell id="6Mg6lQkFVJB2yA4eQzIb-476" value="UV H2H" style="ellipse;shape=cloud;whiteSpace=wrap;html=1;fillColor=#FFFF99;" parent="6Mg6lQkFVJB2yA4eQzIb-1" vertex="1">
          <mxGeometry x="226.25" y="1210" width="120" height="80" as="geometry" />
        </mxCell>
        <mxCell id="6Mg6lQkFVJB2yA4eQzIb-503" value="Http" style="edgeStyle=orthogonalEdgeStyle;curved=1;rounded=0;orthogonalLoop=1;jettySize=auto;html=1;" parent="6Mg6lQkFVJB2yA4eQzIb-1" source="6Mg6lQkFVJB2yA4eQzIb-498" target="6Mg6lQkFVJB2yA4eQzIb-501" edge="1">
          <mxGeometry relative="1" as="geometry" />
        </mxCell>
        <mxCell id="6Mg6lQkFVJB2yA4eQzIb-498" value="&lt;div&gt;Narindo Service&lt;/div&gt;" style="shape=cube;whiteSpace=wrap;html=1;boundedLbl=1;backgroundOutline=1;darkOpacity=0.05;darkOpacity2=0.1;fillColor=#FFFF99;" parent="6Mg6lQkFVJB2yA4eQzIb-1" vertex="1">
          <mxGeometry x="730.34" y="1118" width="130" height="40" as="geometry" />
        </mxCell>
        <mxCell id="6Mg6lQkFVJB2yA4eQzIb-501" value="Narindo H2h" style="ellipse;shape=cloud;whiteSpace=wrap;html=1;fillColor=#FFFF99;" parent="6Mg6lQkFVJB2yA4eQzIb-1" vertex="1">
          <mxGeometry x="810" y="1219" width="120" height="80" as="geometry" />
        </mxCell>
        <mxCell id="EfeLdfodrpcB_5IXN53o-36" style="edgeStyle=elbowEdgeStyle;rounded=0;orthogonalLoop=1;jettySize=auto;html=1;entryX=0;entryY=0;entryDx=0;entryDy=20;entryPerimeter=0;" parent="6Mg6lQkFVJB2yA4eQzIb-1" source="6Mg6lQkFVJB2yA4eQzIb-515" target="EfeLdfodrpcB_5IXN53o-26" edge="1">
          <mxGeometry relative="1" as="geometry">
            <Array as="points">
              <mxPoint x="880" y="690" />
            </Array>
          </mxGeometry>
        </mxCell>
        <mxCell id="EfeLdfodrpcB_5IXN53o-37" style="edgeStyle=elbowEdgeStyle;rounded=0;orthogonalLoop=1;jettySize=auto;html=1;entryX=0;entryY=0;entryDx=0;entryDy=20;entryPerimeter=0;" parent="6Mg6lQkFVJB2yA4eQzIb-1" source="6Mg6lQkFVJB2yA4eQzIb-515" target="EfeLdfodrpcB_5IXN53o-25" edge="1">
          <mxGeometry relative="1" as="geometry" />
        </mxCell>
        <mxCell id="6Mg6lQkFVJB2yA4eQzIb-515" value="Mongo DB" style="shape=cylinder3;whiteSpace=wrap;html=1;boundedLbl=1;backgroundOutline=1;size=15;fillColor=#FFFF99;" parent="6Mg6lQkFVJB2yA4eQzIb-1" vertex="1">
          <mxGeometry x="59.33" y="740" width="70" height="60" as="geometry" />
        </mxCell>
        <mxCell id="6Mg6lQkFVJB2yA4eQzIb-518" value="Mysql DB" style="shape=cylinder3;whiteSpace=wrap;html=1;boundedLbl=1;backgroundOutline=1;size=15;fillColor=#FFFF99;" parent="6Mg6lQkFVJB2yA4eQzIb-1" vertex="1">
          <mxGeometry x="680" y="700" width="70" height="60" as="geometry" />
        </mxCell>
        <mxCell id="6Mg6lQkFVJB2yA4eQzIb-521" style="edgeStyle=orthogonalEdgeStyle;rounded=0;orthogonalLoop=1;jettySize=auto;html=1;entryX=0.5;entryY=0;entryDx=0;entryDy=0;entryPerimeter=0;fillColor=#FF9999;strokeColor=#FF0000;" parent="6Mg6lQkFVJB2yA4eQzIb-1" source="6Mg6lQkFVJB2yA4eQzIb-519" target="6Mg6lQkFVJB2yA4eQzIb-520" edge="1">
          <mxGeometry relative="1" as="geometry" />
        </mxCell>
        <mxCell id="6Mg6lQkFVJB2yA4eQzIb-519" value="&lt;div&gt;Report Service&lt;/div&gt;" style="shape=cube;whiteSpace=wrap;html=1;boundedLbl=1;backgroundOutline=1;darkOpacity=0.05;darkOpacity2=0.1;fillColor=#FFFF99;" parent="6Mg6lQkFVJB2yA4eQzIb-1" vertex="1">
          <mxGeometry x="200" y="650" width="116.66" height="50" as="geometry" />
        </mxCell>
        <mxCell id="6Mg6lQkFVJB2yA4eQzIb-520" value="MYSQL DB" style="shape=cylinder3;whiteSpace=wrap;html=1;boundedLbl=1;backgroundOutline=1;size=15;fillColor=#FFFF99;" parent="6Mg6lQkFVJB2yA4eQzIb-1" vertex="1">
          <mxGeometry x="200" y="770" width="80" height="60" as="geometry" />
        </mxCell>
        <mxCell id="6Mg6lQkFVJB2yA4eQzIb-539" style="edgeStyle=orthogonalEdgeStyle;rounded=0;orthogonalLoop=1;jettySize=auto;html=1;entryX=1;entryY=0.5;entryDx=0;entryDy=0;strokeColor=#FF0000;fillColor=#FF9999;elbow=vertical;curved=1;dashed=1;" parent="6Mg6lQkFVJB2yA4eQzIb-1" source="6Mg6lQkFVJB2yA4eQzIb-525" target="6Mg6lQkFVJB2yA4eQzIb-535" edge="1">
          <mxGeometry relative="1" as="geometry" />
        </mxCell>
        <mxCell id="6Mg6lQkFVJB2yA4eQzIb-525" value="Meilisearch DB" style="shape=cylinder3;whiteSpace=wrap;html=1;boundedLbl=1;backgroundOutline=1;size=15;fillColor=#FFFF99;" parent="6Mg6lQkFVJB2yA4eQzIb-1" vertex="1">
          <mxGeometry x="662" y="804" width="108" height="60" as="geometry" />
        </mxCell>
        <mxCell id="6Mg6lQkFVJB2yA4eQzIb-526" value="" style="shape=cylinder3;whiteSpace=wrap;html=1;boundedLbl=1;backgroundOutline=1;size=15;fillColor=#FFFFFF;rotation=90;" parent="6Mg6lQkFVJB2yA4eQzIb-1" vertex="1">
          <mxGeometry x="451.25" y="685" width="60" height="230" as="geometry" />
        </mxCell>
        <mxCell id="6Mg6lQkFVJB2yA4eQzIb-529" value="Transaction Event" style="rounded=0;whiteSpace=wrap;html=1;fillColor=#FFFFFF;" parent="6Mg6lQkFVJB2yA4eQzIb-1" vertex="1">
          <mxGeometry x="440" y="785" width="120" height="30" as="geometry" />
        </mxCell>
        <mxCell id="6Mg6lQkFVJB2yA4eQzIb-530" value="&lt;div&gt;Report Query Service&lt;/div&gt;" style="shape=cube;whiteSpace=wrap;html=1;boundedLbl=1;backgroundOutline=1;darkOpacity=0.05;darkOpacity2=0.1;fillColor=#FFFF99;" parent="6Mg6lQkFVJB2yA4eQzIb-1" vertex="1">
          <mxGeometry x="401.25" y="650" width="155.41" height="50" as="geometry" />
        </mxCell>
        <mxCell id="6Mg6lQkFVJB2yA4eQzIb-536" style="edgeStyle=entityRelationEdgeStyle;rounded=0;orthogonalLoop=1;jettySize=auto;html=1;entryX=0;entryY=0.5;entryDx=0;entryDy=0;strokeColor=#000000;fillColor=#FF9999;" parent="6Mg6lQkFVJB2yA4eQzIb-1" source="6Mg6lQkFVJB2yA4eQzIb-531" target="6Mg6lQkFVJB2yA4eQzIb-529" edge="1">
          <mxGeometry relative="1" as="geometry" />
        </mxCell>
        <mxCell id="6Mg6lQkFVJB2yA4eQzIb-531" value="Comand" style="rounded=0;whiteSpace=wrap;html=1;fillColor=#FFFFFF;" parent="6Mg6lQkFVJB2yA4eQzIb-1" vertex="1">
          <mxGeometry x="238.5" y="650" width="63" height="20" as="geometry" />
        </mxCell>
        <mxCell id="6Mg6lQkFVJB2yA4eQzIb-538" style="edgeStyle=isometricEdgeStyle;rounded=0;orthogonalLoop=1;jettySize=auto;html=1;strokeColor=#FF0000;fillColor=#FF9999;elbow=vertical;" parent="6Mg6lQkFVJB2yA4eQzIb-1" source="6Mg6lQkFVJB2yA4eQzIb-534" target="6Mg6lQkFVJB2yA4eQzIb-525" edge="1">
          <mxGeometry relative="1" as="geometry" />
        </mxCell>
        <mxCell id="6Mg6lQkFVJB2yA4eQzIb-534" value="Consumer" style="rounded=0;whiteSpace=wrap;html=1;fillColor=#FFFFFF;" parent="6Mg6lQkFVJB2yA4eQzIb-1" vertex="1">
          <mxGeometry x="403" y="630" width="63" height="20" as="geometry" />
        </mxCell>
        <mxCell id="EfeLdfodrpcB_5IXN53o-38" style="edgeStyle=elbowEdgeStyle;rounded=0;orthogonalLoop=1;jettySize=auto;html=1;" parent="6Mg6lQkFVJB2yA4eQzIb-1" source="6Mg6lQkFVJB2yA4eQzIb-535" target="EfeLdfodrpcB_5IXN53o-26" edge="1">
          <mxGeometry relative="1" as="geometry" />
        </mxCell>
        <mxCell id="EfeLdfodrpcB_5IXN53o-39" style="edgeStyle=elbowEdgeStyle;rounded=0;orthogonalLoop=1;jettySize=auto;html=1;entryX=0;entryY=0;entryDx=80;entryDy=0;entryPerimeter=0;" parent="6Mg6lQkFVJB2yA4eQzIb-1" source="6Mg6lQkFVJB2yA4eQzIb-535" target="EfeLdfodrpcB_5IXN53o-25" edge="1">
          <mxGeometry relative="1" as="geometry">
            <Array as="points">
              <mxPoint x="1170" y="790" />
              <mxPoint x="1160" y="790" />
              <mxPoint x="1090" y="790" />
              <mxPoint x="970" y="800" />
            </Array>
          </mxGeometry>
        </mxCell>
        <mxCell id="6Mg6lQkFVJB2yA4eQzIb-535" value="Query" style="rounded=0;whiteSpace=wrap;html=1;fillColor=#FFFFFF;" parent="6Mg6lQkFVJB2yA4eQzIb-1" vertex="1">
          <mxGeometry x="475" y="630" width="63" height="20" as="geometry" />
        </mxCell>
        <mxCell id="6Mg6lQkFVJB2yA4eQzIb-537" style="edgeStyle=orthogonalEdgeStyle;rounded=0;orthogonalLoop=1;jettySize=auto;html=1;strokeColor=#000000;fillColor=#FF9999;" parent="6Mg6lQkFVJB2yA4eQzIb-1" source="6Mg6lQkFVJB2yA4eQzIb-529" target="6Mg6lQkFVJB2yA4eQzIb-534" edge="1">
          <mxGeometry relative="1" as="geometry" />
        </mxCell>
        <mxCell id="EfeLdfodrpcB_5IXN53o-1" value="&lt;div&gt;NGRS OMNIService&lt;/div&gt;" style="shape=cube;whiteSpace=wrap;html=1;boundedLbl=1;backgroundOutline=1;darkOpacity=0.05;darkOpacity2=0.1;fillColor=#FFFF99;" parent="6Mg6lQkFVJB2yA4eQzIb-1" vertex="1">
          <mxGeometry x="1125" y="1118" width="155" height="42" as="geometry" />
        </mxCell>
        <mxCell id="EfeLdfodrpcB_5IXN53o-2" value="Http" style="edgeStyle=orthogonalEdgeStyle;curved=1;rounded=0;orthogonalLoop=1;jettySize=auto;html=1;exitX=0;exitY=0;exitDx=68.33;exitDy=40;exitPerimeter=0;" parent="6Mg6lQkFVJB2yA4eQzIb-1" source="EfeLdfodrpcB_5IXN53o-1" target="EfeLdfodrpcB_5IXN53o-3" edge="1">
          <mxGeometry relative="1" as="geometry">
            <Array as="points">
              <mxPoint x="1203" y="1158" />
              <mxPoint x="1203" y="1220" />
              <mxPoint x="1160" y="1220" />
            </Array>
          </mxGeometry>
        </mxCell>
        <mxCell id="EfeLdfodrpcB_5IXN53o-3" value="NGRS H2H" style="ellipse;shape=cloud;whiteSpace=wrap;html=1;fillColor=#FFFF99;" parent="6Mg6lQkFVJB2yA4eQzIb-1" vertex="1">
          <mxGeometry x="1100" y="1229" width="120" height="80" as="geometry" />
        </mxCell>
        <mxCell id="EfeLdfodrpcB_5IXN53o-13" style="edgeStyle=orthogonalEdgeStyle;curved=1;rounded=0;orthogonalLoop=1;jettySize=auto;html=1;" parent="6Mg6lQkFVJB2yA4eQzIb-1" source="EfeLdfodrpcB_5IXN53o-10" target="EfeLdfodrpcB_5IXN53o-3" edge="1">
          <mxGeometry relative="1" as="geometry">
            <Array as="points">
              <mxPoint x="1388" y="1280" />
            </Array>
          </mxGeometry>
        </mxCell>
        <mxCell id="EfeLdfodrpcB_5IXN53o-10" value="&lt;div&gt;NGRS Regular Service&lt;/div&gt;" style="shape=cube;whiteSpace=wrap;html=1;boundedLbl=1;backgroundOutline=1;darkOpacity=0.05;darkOpacity2=0.1;fillColor=#FFFF99;" parent="6Mg6lQkFVJB2yA4eQzIb-1" vertex="1">
          <mxGeometry x="1310" y="1116" width="155" height="42" as="geometry" />
        </mxCell>
        <mxCell id="EfeLdfodrpcB_5IXN53o-35" style="edgeStyle=elbowEdgeStyle;rounded=0;orthogonalLoop=1;jettySize=auto;html=1;" parent="6Mg6lQkFVJB2yA4eQzIb-1" source="EfeLdfodrpcB_5IXN53o-16" target="EfeLdfodrpcB_5IXN53o-26" edge="1">
          <mxGeometry relative="1" as="geometry" />
        </mxCell>
        <mxCell id="EfeLdfodrpcB_5IXN53o-16" value="Mysql DB" style="shape=cylinder3;whiteSpace=wrap;html=1;boundedLbl=1;backgroundOutline=1;size=15;fillColor=#FFFF99;" parent="6Mg6lQkFVJB2yA4eQzIb-1" vertex="1">
          <mxGeometry x="1455" y="760" width="70" height="60" as="geometry" />
        </mxCell>
        <mxCell id="EfeLdfodrpcB_5IXN53o-24" style="edgeStyle=orthogonalEdgeStyle;rounded=0;orthogonalLoop=1;jettySize=auto;html=1;elbow=vertical;" parent="6Mg6lQkFVJB2yA4eQzIb-1" source="EfeLdfodrpcB_5IXN53o-18" target="EfeLdfodrpcB_5IXN53o-23" edge="1">
          <mxGeometry relative="1" as="geometry" />
        </mxCell>
        <mxCell id="EfeLdfodrpcB_5IXN53o-18" value="internet" style="ellipse;shape=cloud;whiteSpace=wrap;html=1;fillColor=#FFD966;strokeColor=#FFFF66;strokeWidth=2;shadow=1;sketch=0;" parent="6Mg6lQkFVJB2yA4eQzIb-1" vertex="1">
          <mxGeometry x="1197.91" y="372" width="110" height="80" as="geometry" />
        </mxCell>
        <mxCell id="EfeLdfodrpcB_5IXN53o-22" style="edgeStyle=orthogonalEdgeStyle;rounded=0;orthogonalLoop=1;jettySize=auto;html=1;entryX=0.4;entryY=0.1;entryDx=0;entryDy=0;entryPerimeter=0;elbow=vertical;" parent="6Mg6lQkFVJB2yA4eQzIb-1" source="EfeLdfodrpcB_5IXN53o-19" target="EfeLdfodrpcB_5IXN53o-18" edge="1">
          <mxGeometry relative="1" as="geometry" />
        </mxCell>
        <mxCell id="EfeLdfodrpcB_5IXN53o-19" value="Agent Dasboard" style="aspect=fixed;html=1;points=[];align=center;image;fontSize=12;image=img/lib/azure2/general/Browser.svg;" parent="6Mg6lQkFVJB2yA4eQzIb-1" vertex="1">
          <mxGeometry x="1010" y="287" width="65" height="52" as="geometry" />
        </mxCell>
        <mxCell id="EfeLdfodrpcB_5IXN53o-21" style="edgeStyle=orthogonalEdgeStyle;rounded=0;orthogonalLoop=1;jettySize=auto;html=1;entryX=0.4;entryY=0.1;entryDx=0;entryDy=0;entryPerimeter=0;elbow=vertical;" parent="6Mg6lQkFVJB2yA4eQzIb-1" source="EfeLdfodrpcB_5IXN53o-20" target="EfeLdfodrpcB_5IXN53o-18" edge="1">
          <mxGeometry relative="1" as="geometry" />
        </mxCell>
        <mxCell id="EfeLdfodrpcB_5IXN53o-20" value="Internal Dasboard" style="aspect=fixed;html=1;points=[];align=center;image;fontSize=12;image=img/lib/azure2/general/Browser.svg;" parent="6Mg6lQkFVJB2yA4eQzIb-1" vertex="1">
          <mxGeometry x="1400" y="287" width="65" height="52" as="geometry" />
        </mxCell>
        <mxCell id="EfeLdfodrpcB_5IXN53o-23" value="API Gateway (NGINX)" style="shape=cube;whiteSpace=wrap;html=1;boundedLbl=1;backgroundOutline=1;darkOpacity=0.05;darkOpacity2=0.1;fillColor=#66FF66;" parent="6Mg6lQkFVJB2yA4eQzIb-1" vertex="1">
          <mxGeometry x="1180" y="517" width="145.83" height="50" as="geometry" />
        </mxCell>
        <mxCell id="EfeLdfodrpcB_5IXN53o-25" value="Agent Dashboard API" style="shape=cube;whiteSpace=wrap;html=1;boundedLbl=1;backgroundOutline=1;darkOpacity=0.05;darkOpacity2=0.1;fillColor=#FFFF99;" parent="6Mg6lQkFVJB2yA4eQzIb-1" vertex="1">
          <mxGeometry x="1090" y="824" width="180" height="40" as="geometry" />
        </mxCell>
        <mxCell id="EfeLdfodrpcB_5IXN53o-26" value="Internal Dashboard API" style="shape=cube;whiteSpace=wrap;html=1;boundedLbl=1;backgroundOutline=1;darkOpacity=0.05;darkOpacity2=0.1;fillColor=#FFFF99;" parent="6Mg6lQkFVJB2yA4eQzIb-1" vertex="1">
          <mxGeometry x="1350" y="627" width="175" height="40" as="geometry" />
        </mxCell>
        <mxCell id="EfeLdfodrpcB_5IXN53o-31" style="edgeStyle=elbowEdgeStyle;rounded=0;orthogonalLoop=1;jettySize=auto;html=1;" parent="6Mg6lQkFVJB2yA4eQzIb-1" source="EfeLdfodrpcB_5IXN53o-29" target="EfeLdfodrpcB_5IXN53o-19" edge="1">
          <mxGeometry relative="1" as="geometry" />
        </mxCell>
        <mxCell id="EfeLdfodrpcB_5IXN53o-29" value="Actor" style="shape=umlActor;verticalLabelPosition=bottom;verticalAlign=top;html=1;outlineConnect=0;" parent="6Mg6lQkFVJB2yA4eQzIb-1" vertex="1">
          <mxGeometry x="1020" y="100" width="30" height="60" as="geometry" />
        </mxCell>
        <mxCell id="EfeLdfodrpcB_5IXN53o-32" style="edgeStyle=elbowEdgeStyle;rounded=0;orthogonalLoop=1;jettySize=auto;html=1;" parent="6Mg6lQkFVJB2yA4eQzIb-1" source="EfeLdfodrpcB_5IXN53o-30" edge="1">
          <mxGeometry relative="1" as="geometry">
            <mxPoint x="1432.5" y="280" as="targetPoint" />
          </mxGeometry>
        </mxCell>
        <mxCell id="EfeLdfodrpcB_5IXN53o-30" value="Actor" style="shape=umlActor;verticalLabelPosition=bottom;verticalAlign=top;html=1;outlineConnect=0;" parent="6Mg6lQkFVJB2yA4eQzIb-1" vertex="1">
          <mxGeometry x="1417.5" y="100" width="30" height="60" as="geometry" />
        </mxCell>
      </root>
    </mxGraphModel>
  </diagram>
  <diagram id="s42VIODD6Nwpk8YIUpZM" name="Page-3">
    <mxGraphModel dx="1590" dy="793" grid="1" gridSize="10" guides="1" tooltips="1" connect="1" arrows="1" fold="1" page="1" pageScale="1" pageWidth="850" pageHeight="1100" math="0" shadow="0">
      <root>
        <mxCell id="N_kL28tS_I-GriEoO0I_-0" />
        <mxCell id="N_kL28tS_I-GriEoO0I_-1" parent="N_kL28tS_I-GriEoO0I_-0" />
        <mxCell id="N_kL28tS_I-GriEoO0I_-7" style="edgeStyle=orthogonalEdgeStyle;rounded=0;orthogonalLoop=1;jettySize=auto;html=1;" edge="1" parent="N_kL28tS_I-GriEoO0I_-1" source="N_kL28tS_I-GriEoO0I_-2">
          <mxGeometry relative="1" as="geometry">
            <mxPoint x="770" y="310" as="targetPoint" />
          </mxGeometry>
        </mxCell>
        <mxCell id="N_kL28tS_I-GriEoO0I_-2" value="Diagram Flow OMNI Jd.Id" style="swimlane;html=1;childLayout=stackLayout;resizeParent=1;resizeParentMax=0;startSize=20;" vertex="1" parent="N_kL28tS_I-GriEoO0I_-1">
          <mxGeometry x="80" y="70" width="480" height="480" as="geometry" />
        </mxCell>
        <mxCell id="N_kL28tS_I-GriEoO0I_-3" value="User" style="swimlane;html=1;startSize=20;" vertex="1" parent="N_kL28tS_I-GriEoO0I_-2">
          <mxGeometry y="20" width="120" height="460" as="geometry" />
        </mxCell>
        <mxCell id="N_kL28tS_I-GriEoO0I_-4" value="Telkomsel Web View" style="swimlane;html=1;startSize=20;" vertex="1" parent="N_kL28tS_I-GriEoO0I_-2">
          <mxGeometry x="120" y="20" width="120" height="460" as="geometry">
            <mxRectangle x="120" y="20" width="30" height="460" as="alternateBounds" />
          </mxGeometry>
        </mxCell>
        <mxCell id="N_kL28tS_I-GriEoO0I_-5" value="web view" style="swimlane;html=1;startSize=20;" vertex="1" parent="N_kL28tS_I-GriEoO0I_-2">
          <mxGeometry x="240" y="20" width="120" height="460" as="geometry" />
        </mxCell>
        <mxCell id="N_kL28tS_I-GriEoO0I_-6" value="Lane 3" style="swimlane;html=1;startSize=20;" vertex="1" parent="N_kL28tS_I-GriEoO0I_-2">
          <mxGeometry x="360" y="20" width="120" height="460" as="geometry" />
        </mxCell>
      </root>
    </mxGraphModel>
  </diagram>
</mxfile>
